<svg width="18" height="18" viewBox="0 0 18 18" fill="none" xmlns="http://www.w3.org/2000/svg">
<g clip-path="url(#clip0_11157_1716)">
<path d="M8.9603 11.1219L7.8998 12.1824L4.7168 9.00012L7.89905 5.81787L8.95955 6.87912L7.5893 8.25012H13.242V9.75012H7.5893L8.9603 11.1219Z" fill="#1C344C"/>
<path fill-rule="evenodd" clip-rule="evenodd" d="M3.1665 14.8335C-0.0554999 11.6115 -0.0554999 6.3885 3.1665 3.1665C6.3885 -0.0554999 11.6115 -0.0554999 14.8335 3.1665C18.0555 6.3885 18.0555 11.6115 14.8335 14.8335C11.6115 18.0555 6.3885 18.0555 3.1665 14.8335ZM4.227 13.773C2.96112 12.5071 2.24996 10.7902 2.24996 9C2.24996 7.20978 2.96112 5.49288 4.227 4.227C5.49288 2.96112 7.20978 2.24996 9 2.24996C10.7902 2.24996 12.5071 2.96112 13.773 4.227C15.0389 5.49288 15.75 7.20978 15.75 9C15.75 10.7902 15.0389 12.5071 13.773 13.773C12.5071 15.0389 10.7902 15.75 9 15.75C7.20978 15.75 5.49288 15.0389 4.227 13.773Z" fill="#1C344C"/>
</g>
<defs>
<clipPath id="clip0_11157_1716">
<rect width="18" height="18" fill="white"/>
</clipPath>
</defs>
</svg>
