<svg width="10" height="6" viewBox="0 0 10 6" fill="none" xmlns="http://www.w3.org/2000/svg">
<path d="M0.246641 0.246641C0.0822134 0.411068 0 0.62034 0 0.874455C0 1.12857 0.0822134 1.33784 0.246641 1.50227L4.37228 5.6279C4.46196 5.71759 4.55912 5.78127 4.66376 5.81894C4.7684 5.85601 4.88051 5.87455 5.00009 5.87455C5.11967 5.87455 5.23567 5.85212 5.34808 5.80728C5.45989 5.76244 5.55316 5.70264 5.6279 5.6279L9.75354 1.50227C9.91796 1.33784 10.0002 1.12857 10.0002 0.874455C10.0002 0.62034 9.91796 0.411068 9.75354 0.246641C9.58911 0.0822133 9.37984 -5.22674e-07 9.12572 -5.22674e-07C8.87161 -5.22674e-07 8.66234 0.0822133 8.49791 0.246641L5.00009 3.74446L1.50227 0.246641C1.33784 0.0822133 1.12857 -5.22674e-07 0.874455 -5.22674e-07C0.62034 -5.22674e-07 0.411068 0.0822133 0.246641 0.246641Z" fill="#082648"/>
</svg>
