<svg width="14" height="9" viewBox="0 0 14 9" fill="none" xmlns="http://www.w3.org/2000/svg">
<g clip-path="url(#clip0_11157_1728)">
<path d="M12.3081 3.42694L7.40807 8.34153C7.34974 8.39986 7.28655 8.44128 7.21849 8.46578C7.15044 8.49028 7.07752 8.50233 6.99974 8.50194C6.92196 8.50194 6.84905 8.48969 6.78099 8.46519C6.71293 8.44069 6.64974 8.39947 6.59141 8.34153L1.67682 3.42694C1.54071 3.29083 1.47266 3.12069 1.47266 2.91653C1.47266 2.71236 1.54557 2.53736 1.69141 2.39153C1.83724 2.24569 2.00738 2.17278 2.20182 2.17278C2.39627 2.17278 2.56641 2.24569 2.71224 2.39153L6.99974 6.67903L11.2872 2.39153C11.4234 2.25541 11.5912 2.18736 11.7907 2.18736C11.9902 2.18736 12.1626 2.26028 12.3081 2.40611C12.4539 2.55194 12.5268 2.72208 12.5268 2.91653C12.5268 3.11097 12.4539 3.28111 12.3081 3.42694Z" fill="#1C344C"/>
</g>
<defs>
<clipPath id="clip0_11157_1728">
<rect width="8.75" height="14" fill="white" transform="matrix(0 -1 1 0 0 8.75)"/>
</clipPath>
</defs>
</svg>
