<svg width="662" height="308" viewBox="0 0 662 308" fill="none" xmlns="http://www.w3.org/2000/svg">
<rect width="222" height="32" fill="#F3F3F3"/>
<rect x="39" y="63" width="222" height="32" fill="#F3F3F3"/>
<rect width="219" height="32" transform="matrix(-1 0 0 1 662 32)" fill="#F3F3F3"/>
<rect y="181" width="222" height="32" fill="#F3F3F3"/>
<rect x="344" y="165" width="222" height="32" fill="#F3F3F3"/>
<rect width="219" height="32" transform="matrix(-1 0 0 1 662 210)" fill="#F3F3F3"/>
<rect x="137" y="122" width="222" height="32" fill="#F3F3F3"/>
<rect width="219" height="32" transform="matrix(-1 0 0 1 592 98)" fill="#F3F3F3"/>
<rect x="56" y="235" width="222" height="32" fill="#F3F3F3"/>
<rect width="219" height="32" transform="matrix(-1 0 0 1 582 276)" fill="#F3F3F3"/>
<path d="M203.686 121.694C181.364 147.173 144.424 170.982 144.424 170.982L252.162 211.603C252.162 211.603 256.559 205.387 293.441 170.982C330.324 136.578 334.001 86.4593 334.001 86.4593L235.81 58.5809C235.81 58.5809 219.929 103.154 203.686 121.694Z" fill="#AFAFAF"/>
<path d="M386.139 160.497C360.325 188.541 325.839 199.038 325.839 199.038L427.632 267.059C427.632 267.059 463.281 253.184 492.196 206.841C521.11 160.497 521.11 130.632 521.11 130.632L427.632 75.8563C427.632 75.8563 404.923 140.09 386.139 160.497Z" fill="#9D9D9D"/>
<path d="M372.515 169.507C391.588 196.634 425.256 204.118 425.256 204.118L319.895 247.326C319.895 247.326 296.798 236.008 269.438 195.862C242.079 155.716 249.629 123.022 249.629 123.022L353.308 112.427C353.308 112.427 358.55 149.644 372.515 169.507Z" fill="#BCBCBC" stroke="#AFAFAF" stroke-width="4"/>
</svg>
