<svg width="16" height="16" viewBox="0 0 16 16" fill="none" xmlns="http://www.w3.org/2000/svg">
<path d="M8.00065 2.66683C10.9413 2.66683 13.334 5.0595 13.334 8.00016C13.334 10.9408 10.9413 13.3335 8.00065 13.3335C5.05998 13.3335 2.66732 10.9408 2.66732 8.00016C2.66732 5.0595 5.05998 2.66683 8.00065 2.66683ZM8.00065 1.3335C4.31865 1.3335 1.33398 4.31816 1.33398 8.00016C1.33398 11.6822 4.31865 14.6668 8.00065 14.6668C11.6827 14.6668 14.6673 11.6822 14.6673 8.00016C14.6673 4.31816 11.6827 1.3335 8.00065 1.3335ZM11.334 7.3335H8.66732V4.66683H7.33398V7.3335H4.66732V8.66683H7.33398V11.3335H8.66732V8.66683H11.334V7.3335Z" fill="#082648"/>
</svg>
