<svg width="12" height="7" viewBox="0 0 12 7" fill="none" xmlns="http://www.w3.org/2000/svg">
<path d="M11.762 1.36133L6.44297 6.69617C6.37965 6.7595 6.31105 6.80445 6.23717 6.83105C6.1633 6.85764 6.08415 6.87073 5.99972 6.87031C5.91529 6.87031 5.83614 6.85701 5.76226 6.83042C5.68839 6.80382 5.61979 6.75907 5.55647 6.69617L0.221625 1.36133C0.0738751 1.21358 0 1.02889 0 0.807268C0 0.585642 0.079152 0.395678 0.237456 0.237374C0.39576 0.07907 0.580448 -8.17828e-05 0.79152 -8.17828e-05C1.00259 -8.17828e-05 1.18728 0.07907 1.34558 0.237374L5.99972 4.89151L10.6539 0.237374C10.8016 0.0896236 10.9838 0.0157484 11.2003 0.0157484C11.4169 0.0157484 11.6041 0.0949001 11.762 0.253204C11.9203 0.411508 11.9994 0.596196 11.9994 0.807268C11.9994 1.01834 11.9203 1.20303 11.762 1.36133Z" fill="#1C344C"/>
</svg>
