<svg width="28" height="19" viewBox="0 0 28 19" fill="none" xmlns="http://www.w3.org/2000/svg">
<path d="M23.8666 18.4899L4.426 18.6599C-1.87841 16.3145 -0.383378 10.324 2.38426 8.5077C4.59838 7.05469 6.66456 7.62131 7.42088 8.08625C11.3814 0.36075 17.3019 1.48535 19.767 3.01334V8.08625H24.5954C28.6443 9.19188 28.8203 14.8251 26.4967 16.9023C25.6047 17.5588 24.7714 18.1865 23.8666 18.4899Z" fill="#FCAF04"/>
<mask id="mask0_11157_2649" style="mask-type:alpha" maskUnits="userSpaceOnUse" x="0" y="1" width="28" height="18">
<path d="M23.8666 18.4899L4.426 18.6599C-1.87841 16.3145 -0.383378 10.324 2.38426 8.5077C4.59838 7.05469 6.66456 7.62131 7.42088 8.08625C11.3814 0.36075 17.3019 1.48535 19.767 3.01334V8.08625H24.5954C28.6443 9.19188 28.8203 14.8251 26.4967 16.9023C25.6047 17.5588 24.7714 18.1865 23.8666 18.4899Z" fill="#FCAF04"/>
</mask>
<g mask="url(#mask0_11157_2649)">
<path d="M8.08984 7.72705C9.03569 8.01241 10.8473 9.2526 11.2376 11.3419C13.9236 11.3419 17.1459 15.9807 12.6536 19.0081" stroke="#B17C03" stroke-width="1.02382" stroke-linecap="square"/>
<path d="M24.6889 7.88428C25.6237 11.0895 25.4461 17.1436 18.6797 19.3694" stroke="#B17C03" stroke-width="0.938504"/>
</g>
<rect x="20.5664" y="3.55908" width="3.40849" height="3.5076" fill="#FCAF04"/>
<rect x="24.7363" y="3.24951" width="2.4015" height="2.47133" fill="#FCAF04"/>
<rect x="22.5078" y="1.07568" width="1.77044" height="1.82192" fill="#FCAF04"/>
<rect x="26.4727" y="1.34912" width="1.08673" height="1.11833" fill="#FCAF04"/>
<rect x="24.7363" y="0.605957" width="1.08673" height="1.11833" fill="#FCAF04"/>
<rect x="26.4551" width="0.82444" height="0.848412" fill="#FCAF04"/>
</svg>
